<svg width="40" height="40" viewBox="0 0 40 40" fill="none" xmlns="http://www.w3.org/2000/svg">
<path d="M29.8084 14.0557H26.6351C26.2825 14.0557 25.93 13.8952 25.6735 13.6384L24.3914 12.1938C24.0067 11.7765 23.3977 11.7444 22.949 12.0975L22.8528 12.1938L21.763 13.4458C21.4104 13.8631 20.8655 14.0878 20.3206 14.0878H2.9796C2.4988 15.5003 2.17826 17.0091 2.05005 18.5178H18.4615C18.75 18.5178 19.0384 18.3894 19.2308 18.1968L20.7693 16.5917C20.9617 16.3991 21.2181 16.2707 21.5066 16.2707H21.5707C21.8592 16.2707 22.1476 16.3991 22.34 16.6238L23.6221 18.0684C23.8785 18.3573 24.2311 18.5178 24.5837 18.5178H37.9501C37.8218 17.0091 37.5013 15.5003 37.0205 14.0878H29.8084V14.0557ZM19.2949 22.9158L18.0127 21.4712C17.6281 21.0539 17.0191 21.0218 16.5703 21.3749L16.4742 21.4712L15.3523 22.7232C14.9997 23.1405 14.4868 23.3652 13.9419 23.3652H2.30648C2.59496 24.9061 3.10782 26.4149 3.78094 27.8595H11.9546C12.2431 27.8595 12.4995 27.7311 12.7239 27.5385L14.2625 25.9334C14.4548 25.7408 14.7112 25.6123 14.9997 25.6123H15.0638C15.3523 25.6123 15.6408 25.7408 15.8331 25.9655L17.1152 27.41C17.3717 27.699 17.7242 27.8595 18.0768 27.8595H36.2192C36.8923 26.447 37.4051 24.9382 37.6936 23.3652H20.2565C19.8718 23.3652 19.5192 23.2047 19.2949 22.9158ZM25.5774 8.9194L27.1159 7.31431C27.3083 7.1217 27.5647 6.99329 27.8532 6.99329H27.9173C28.2058 6.99329 28.4942 7.1217 28.6866 7.31431L29.9687 8.75889C30.2251 9.04781 30.5777 9.17622 30.9303 9.17622H34.3921C28.366 1.21497 17.0511 -0.35802 9.06978 5.64502C7.75558 6.64017 6.5696 7.82794 5.54389 9.17622H24.8081C25.1286 9.24042 25.385 9.11201 25.5774 8.9194ZM13.1726 32.2895C12.788 32.2895 12.4354 32.129 12.211 31.8722L10.9289 30.4276C10.5442 30.0103 9.90317 29.9782 9.48648 30.3634L9.42237 30.4276L8.3005 31.6796C7.94791 32.0969 7.43505 32.3216 6.89014 32.3216H6.82603C13.5893 39.5766 25.0325 39.9297 32.3086 33.0921C32.5971 32.8353 32.8535 32.5463 33.142 32.2574H13.1726V32.2895Z" fill="#111214"/>
</svg>
